<?xml version="1.0" encoding="UTF-8" standalone="no"?>
<svg
   xmlns:dc="http://purl.org/dc/elements/1.1/"
   xmlns:cc="http://creativecommons.org/ns#"
   xmlns:rdf="http://www.w3.org/1999/02/22-rdf-syntax-ns#"
   xmlns:svg="http://www.w3.org/2000/svg"
   xmlns="http://www.w3.org/2000/svg"
   viewBox="0 0 460 253.33333"
   height="253.33333"
   width="460"
   xml:space="preserve"
   id="svg2"
   version="1.1"><metadata
     id="metadata8"><rdf:RDF><cc:Work
         rdf:about=""><dc:format>image/svg+xml</dc:format><dc:type
           rdf:resource="http://purl.org/dc/dcmitype/StillImage" /></cc:Work></rdf:RDF></metadata><defs
     id="defs6" /><g
     transform="matrix(1.3333333,0,0,-1.3333333,0,253.33333)"
     id="g10"><g
       transform="scale(0.1)"
       id="g12"><path
         id="path14"
         style="fill:#dcdcde;fill-opacity:1;fill-rule:evenodd;stroke:none"
         d="m 2218.36,1068.91 c -0.35,-8.32 -13.52,-16.02 -39.49,-23.01 -25.67,-6.99 -61.37,-13.17 -107.03,-18.48 -45.67,-5.66 -98.64,-10 -158.99,-13.01 -60.66,-3 -125.66,-4.49 -195,-4.49 -69.65,0 -134.65,1.49 -195,4.49 -60.35,3.01 -113.51,7.35 -159.49,13.01 -45.66,5.31 -81.33,11.49 -106.99,18.48 -26.02,6.99 -39.18,14.69 -39.53,23.01 0.35,8.32 13.51,16.01 39.53,23 25.66,7 61.33,13.17 106.99,18.48 45.98,5.66 99.14,10 159.49,13.01 60.35,3.01 125.35,4.49 195,4.49 69.65,0 134.65,-1.48 195,-4.49 60.35,-3.01 113.32,-7.35 158.99,-13.01 45.66,-5.31 81.52,-11.48 107.5,-18.48 25.66,-6.99 38.67,-14.68 39.02,-23" /><path
         id="path16"
         style="fill:#191919;fill-opacity:1;fill-rule:evenodd;stroke:none"
         d="m 2008.36,1158.91 -0.51,-1.49 c -0.66,-1.01 -1.17,-2.03 -1.48,-3.01 l -3.01,-4.49 h -9.49 c -72.03,2.31 -144.69,9.14 -218.01,20.47 -47.66,7.7 -91.99,16.52 -133.01,26.52 -41.01,10.32 -80.35,22.35 -118.01,35.98 -37.34,13.36 -74.64,28.36 -111.99,45 -37.34,17.03 -76.17,36.02 -116.48,57.03 l -6.02,2.97 -1.01,4.53 -0.47,3.48 c -10,78.36 -10.86,153.67 -2.5,226.01 8.32,72.35 26.33,144.34 53.98,215.98 l 0.51,2.03 3.01,6.49 c 80.66,18.98 164.49,30.82 251.48,35.5 87.35,4.34 175.67,0.67 265,-11.01 89.34,-11.33 177.85,-31.17 265.51,-59.49 v -6.49 c 0,-1.01 0,-2.34 0,-4.02 3.32,-110.98 -4.69,-215.51 -24.02,-313.48 -19.34,-98.01 -50.47,-190.86 -93.48,-278.51 m 192.5,646.01 c -62.34,26.64 -126.68,47.31 -193.01,61.99 -66.68,14.65 -133.01,24.34 -198.98,28.99 -66.37,4.69 -130.2,5.35 -191.53,1.99 -61.32,-3.32 -118,-9.65 -170,-18.98 -51.99,-9.34 -96.99,-20.67 -135,-33.99 -40,-88.67 -65.82,-179.33 -77.5,-272.03 -11.32,-92.66 -8.67,-188.63 8.01,-287.97 53.67,-31.01 107.15,-58.87 160.51,-83.51 53.01,-24.65 109.34,-46.18 168.98,-64.5 59.69,-18 125.86,-32.85 198.52,-44.49 88.32,-14.02 174.65,-21.01 258.98,-21.01 9.03,0 18.01,0.15 27,0.5 40.66,72.35 73,147.15 97.03,224.5 23.98,76.99 39.8,157.5 47.5,241.48 7.65,84.34 7.5,173.36 -0.51,267.03" /><path
         id="path18"
         style="fill:#758abd;fill-opacity:1;fill-rule:evenodd;stroke:none"
         d="m 1600.86,1358.4 c -2.66,90.66 -0.66,182.5 5.98,275.51 40,-25.67 80.5,-50.36 121.52,-73.99 40.98,-23.67 80.98,-47.5 120,-71.52 -41.02,-24.65 -82.34,-47.81 -124.02,-69.49 -42,-22 -83.17,-42.15 -123.48,-60.51 m -234.49,405 c -21.37,-61.99 -35.67,-124.49 -43.01,-187.5 -7.34,-63.32 -7.34,-128.67 0,-195.98 39.65,-19.33 77.34,-36.68 113.01,-52.03 35.66,-15.31 71.33,-29.14 106.99,-41.48 35.31,-12.35 72.34,-23.17 110.98,-32.5 38.36,-9.34 80,-17.5 125,-24.5 63,-10 125.5,-16.52 187.5,-19.49 35.35,77.97 61.68,160.31 79.02,246.99 17.66,86.64 26.33,179.34 25.98,278.01 -20.67,6.99 -50.67,14.34 -90,21.99 -39.34,7.66 -84.65,14.65 -135.98,20.98 -51.02,6.37 -104.69,10.51 -161.02,12.5 -56.32,2.34 -111.99,1.68 -166.99,-1.99 -54.65,-3.99 -105.15,-12.35 -151.48,-25" /><path
         id="path20"
         style="fill:#414042;fill-opacity:1;fill-rule:nonzero;stroke:none"
         d="m 9.57031,857.852 h 3.58989 c 6.3281,0 11.1406,-6.563 14.3789,-19.692 L 148.949,566.91 c 7.571,8.949 37.379,72.738 89.371,191.41 l 44.84,96.719 c 1.961,1.871 4.262,2.813 6.879,2.813 h 3.59 c 5.391,0 8.601,-4.801 9.531,-14.372 v -310 c -1.558,-8.679 -5.39,-12.968 -11.398,-12.968 h -0.473 c -7.809,1.328 -11.719,4.84 -11.719,10.468 V 766.91 H 268.629 C 198.711,608.48 162.77,527.73 160.82,524.73 c -3.242,-2.82 -6.332,-4.218 -9.218,-4.218 -7.813,0 -15.473,11.636 -22.973,35 L 34.7305,765.82 H 23.6289 V 530.98 c 0,-5.628 -3.8984,-9.14 -11.7187,-10.468 h -0.461 c -6.05857,0 -9.84764,4.289 -11.4101375,12.968 v 310 C 0.980469,853.051 4.14063,857.852 9.57031,857.852 Z M 478.828,758.012 c 44.883,0 80.391,-22.032 106.563,-66.102 8.007,-17.609 12.031,-36.09 12.031,-55.461 V 530.82 c 0,-5.55 -3.902,-8.98 -11.723,-10.308 h -0.469 c -5.109,0 -8.859,2.886 -11.25,8.75 v -0.473 l 0.942,22.813 v 15.308 c -32.5,-30.93 -63.442,-46.398 -92.813,-46.398 h -7.031 c -40.238,0 -73.75,20.226 -100.629,60.777 -9.679,19.371 -14.527,38.981 -14.527,58.91 0,44.063 21.719,79.063 65.156,105 18.32,8.512 36.25,12.813 53.75,12.813 z M 383.359,641.129 v -2.649 c 0,-38.75 19.411,-67.968 58.282,-87.66 12.5,-4.609 23.629,-6.871 33.437,-6.871 h 7.031 c 32.582,0 59.411,16.172 80.469,48.59 7.582,15.313 11.402,29.922 11.402,43.91 v 3.75 c 0,37.383 -18.39,65.93 -55.152,85.621 -13.047,5.821 -26.367,8.75 -40,8.75 h -1.098 c -39.371,0 -68.902,-20.429 -88.589,-61.25 -3.871,-12.73 -5.782,-23.441 -5.782,-32.191 z" /><path
         id="path22"
         style="fill:#414042;fill-opacity:1;fill-rule:nonzero;stroke:none"
         d="m 678.199,760.039 c 8.129,-2.109 12.192,-5.269 12.192,-9.527 v -33.91 c 32.578,28.949 63.359,43.437 92.339,43.437 15.629,0 31.961,-3.668 49.071,-10.937 3.121,-3.364 4.679,-6.52 4.679,-9.532 v -0.468 c -1.359,-7.813 -5.109,-11.723 -11.25,-11.723 -16.789,5.32 -29.761,7.973 -38.902,7.973 h -5.308 c -38.559,0 -66.801,-19.961 -84.692,-59.84 -3.988,-10.742 -5.937,-22.782 -5.937,-36.102 V 530.98 c 0,-5.628 -3.981,-9.14 -11.871,-10.468 h -0.469 c -5.942,0 -9.692,4.218 -11.25,12.648 v 211.41 c 1.129,10.309 4.918,15.469 11.398,15.469 z" /><path
         id="path24"
         style="fill:#414042;fill-opacity:1;fill-rule:nonzero;stroke:none"
         d="m 995.66,758.789 c 30.51,0 58.17,-11.41 82.97,-34.219 0.94,-1.558 1.41,-3.359 1.41,-5.308 v -0.473 c -1.49,-7.809 -5.24,-11.719 -11.25,-11.719 h -0.94 c -3.12,0 -11.83,5.469 -26.09,16.41 -14.69,7.379 -29.18,11.09 -43.44,11.09 h -5.468 c -38.051,0 -66.723,-19.84 -86.09,-59.531 -4.614,-13.559 -6.883,-25.699 -6.883,-36.41 0,-38.551 19.851,-67.809 59.531,-87.809 12.07,-4.609 24.77,-6.871 38.129,-6.871 22.501,0 44.141,8.672 65.001,26.09 l 5.16,1.25 h 2.18 c 5.51,0 8.91,-3.91 10.16,-11.719 v -0.16 c 0,-9.801 -18.09,-21.64 -54.22,-35.461 -12.3,-2.308 -21.48,-3.437 -27.5,-3.437 h -7.34 c -31.878,0 -61.57,15.148 -89.07,45.468 -16.988,23.75 -25.461,48.321 -25.461,73.75 0,38.629 17.18,71.168 51.563,97.649 21.758,14.262 44.289,21.41 67.648,21.41 z" /><path
         id="path26"
         style="fill:#414042;fill-opacity:1;fill-rule:nonzero;stroke:none"
         d="m 1247.5,758.629 c 45.94,0 81.6,-21.828 107.03,-65.469 8.63,-16.988 12.97,-35.461 12.97,-55.461 v -4.07 c -1.48,-8.547 -5.23,-12.809 -11.25,-12.809 h -200.78 c 9.14,-31.05 26.48,-53.519 52.03,-67.34 14.77,-5.75 28.67,-8.601 41.72,-8.601 15.19,0 31.91,4.57 50.16,13.75 h 3.43 c 7.07,-1.481 10.63,-4.957 10.63,-10.469 v -2.808 c 0,-11.372 -20,-19.653 -60,-24.84 h -5.94 c -42.62,0 -76.84,20 -102.66,60 -10.31,18.75 -15.46,38.468 -15.46,59.218 0,43.43 20.54,78.04 61.71,103.899 20.08,10 38.91,15 56.41,15 z m -93.75,-114.367 h 188.59 c 0,17.886 -7.81,37.539 -23.43,58.898 -21.57,20.199 -42.93,30.32 -64.07,30.32 h -10 c -31.36,0 -57.14,-15.32 -77.34,-45.941 -6.99,-12.187 -11.56,-26.641 -13.75,-43.277 z" /><path
         id="path28"
         style="fill:#414042;fill-opacity:1;fill-rule:nonzero;stroke:none"
         d="m 1431.72,856.762 h 2.81 c 7.5,-1.492 11.25,-4.34 11.25,-8.602 V 544.262 h 25.47 c 4.69,0 7.85,-4.063 9.53,-12.192 v 0.469 c -1.37,-8.051 -5.23,-12.027 -11.56,-12.027 h -35.63 c -6.05,0 -9.84,4.218 -11.4,12.648 v 309.379 c 0.93,9.449 4.1,14.223 9.53,14.223 z" /><path
         id="path30"
         style="fill:#414042;fill-opacity:1;fill-rule:nonzero;stroke:none"
         d="m 1666.29,859.41 h 84.37 c 30.82,0 57.11,-16.051 78.91,-48.121 8.13,-16.25 12.19,-30.898 12.19,-43.91 v -6.559 c 0,-28.871 -13.09,-53.832 -39.22,-74.84 -17.81,-12.191 -35.12,-18.281 -51.88,-18.281 h -70 V 530.98 c 0,-5.55 -4.02,-9.031 -12.03,-10.468 h -0.47 c -5.93,0 -9.76,4.289 -11.4,12.968 v 311.25 c 0.94,9.758 4.1,14.68 9.53,14.68 z m 14.37,-23.898 v -143.91 h 63.44 c 33.75,0 56.95,16.128 69.69,48.437 2.69,6.762 4.06,14.883 4.06,24.371 0,29.77 -15.12,51.762 -45.31,65.942 -7.74,3.437 -16.52,5.16 -26.41,5.16 z" /><path
         id="path32"
         style="fill:#414042;fill-opacity:1;fill-rule:nonzero;stroke:none"
         d="m 2008.36,756.91 c 30.39,0 57.97,-11.558 82.66,-34.68 23.63,-24.808 35.46,-52.66 35.46,-83.601 0,-44.289 -21.01,-79.059 -62.96,-104.367 -18.13,-9.184 -35.63,-13.75 -52.5,-13.75 h -7.35 c -31.56,0 -61.05,15 -88.44,45 -16.79,23.508 -25.15,47.886 -25.15,73.117 0,38.441 17.03,70.672 51.09,96.723 21.64,14.378 44.06,21.558 67.19,21.558 z M 1914.3,641.449 v -4.539 c 0,-35.621 17.07,-63.121 51.25,-82.5 12.57,-6.48 25.93,-9.68 40,-9.68 h 5.47 c 36.75,0 64.88,18.981 84.37,57.032 4.57,12.066 6.88,23.789 6.88,35.148 v 4.539 c 0,29.68 -13.52,54.571 -40.47,74.68 -15.94,11.019 -34.14,16.57 -54.53,16.57 -40.24,0 -69.61,-20.937 -88.13,-62.82 -3.24,-10.43 -4.84,-19.918 -4.84,-28.43 z" /><path
         id="path34"
         style="fill:#414042;fill-opacity:1;fill-rule:nonzero;stroke:none"
         d="m 2293.4,758.629 c 45.94,0 81.6,-21.828 107.03,-65.469 8.63,-16.988 12.97,-35.461 12.97,-55.461 v -4.07 c -1.49,-8.547 -5.24,-12.809 -11.25,-12.809 h -200.78 c 9.14,-31.05 26.48,-53.519 52.03,-67.34 14.76,-5.75 28.67,-8.601 41.72,-8.601 15.19,0 31.91,4.57 50.15,13.75 h 3.44 c 7.07,-1.481 10.63,-4.957 10.63,-10.469 v -2.808 c 0,-11.372 -20,-19.653 -60,-24.84 h -5.94 c -42.62,0 -76.84,20 -102.66,60 -10.31,18.75 -15.47,38.468 -15.47,59.218 0,43.43 20.55,78.04 61.72,103.899 20.08,10 38.91,15 56.41,15 z m -93.75,-114.367 h 188.59 c 0,17.886 -7.81,37.539 -23.44,58.898 -21.56,20.199 -42.92,30.32 -64.06,30.32 h -10 c -31.36,0 -57.15,-15.32 -77.34,-45.941 -6.99,-12.187 -11.56,-26.641 -13.75,-43.277 z" /><path
         id="path36"
         style="fill:#414042;fill-opacity:1;fill-rule:nonzero;stroke:none"
         d="m 2477.62,856.762 h 2.81 c 7.5,-1.492 11.25,-4.34 11.25,-8.602 V 544.262 h 25.47 c 4.69,0 7.85,-4.063 9.53,-12.192 v 0.469 c -1.37,-8.051 -5.23,-12.027 -11.56,-12.027 h -35.63 c -6.05,0 -9.84,4.218 -11.4,12.648 v 309.379 c 0.93,9.449 4.1,14.223 9.53,14.223 z" /><path
         id="path38"
         style="fill:#414042;fill-opacity:1;fill-rule:nonzero;stroke:none"
         d="m 2669.88,756.602 c 39.57,0 70.51,-17.582 92.82,-52.653 l 0.46,-5.469 v -0.781 c 0,-5.937 -4.18,-9.609 -12.5,-10.937 -5.31,0 -11.64,6.168 -18.9,18.59 -18.44,17.699 -39.06,26.558 -61.88,26.558 -30.11,0 -54.02,-14.531 -71.72,-43.59 l -0.93,-6.41 c 0,-12.109 10.7,-19.058 32.18,-20.93 68.83,-16.679 106.18,-26.058 112.04,-28.128 15.07,-10.122 22.65,-22.813 22.65,-38.122 v -0.781 c 0,-22.621 -17.26,-43.75 -51.72,-63.437 -14.8,-6.684 -30.74,-10 -47.81,-10 -34.49,0 -63.87,16.289 -88.12,48.898 -1.68,2.578 -2.5,4.77 -2.5,6.57 v 5.309 c 0,5.191 4.72,8.32 14.21,9.371 3.44,0 9.93,-6.949 19.54,-20.781 17.57,-16.359 37.73,-24.527 60.46,-24.527 27.5,0 50.47,13.199 68.91,39.687 l 2.19,7.031 v 1.879 c 0,11.442 -7.11,17.961 -21.25,19.531 -79.61,17.809 -121.41,28.469 -125.47,32.032 -13.56,10.308 -20.31,22.578 -20.31,36.867 0,20.512 15.54,40.711 46.72,60.633 17.07,9.058 34.06,13.59 50.93,13.59 z" /><path
         id="path40"
         style="fill:#414042;fill-opacity:1;fill-rule:nonzero;stroke:none"
         d="m 2863.55,847.699 h 2.66 c 7.19,-1.488 10.78,-4.219 10.78,-8.289 v -86.711 h 43.44 l 7.97,0.93 c 4.76,0 8.2,-4.219 10.31,-12.649 0,-4.929 -3.36,-8.558 -10,-10.941 l -12.19,0.941 h -39.53 V 593.32 c 0,-25.941 9.1,-42.109 27.35,-48.441 l 21.4,-1.719 h 10.31 c 4.57,0 7.58,-3.82 9.07,-11.398 v 0.308 c -1.37,-7.73 -5.08,-11.558 -11.1,-11.558 h -18.75 c -25.86,0 -45.11,14.258 -57.81,42.808 -2.19,6.758 -3.28,14.918 -3.28,24.532 V 730.98 h -24.06 l -13.44,-0.941 c -6.56,2.383 -9.84,6.133 -9.84,11.25 1.32,7.582 6.71,11.41 16.09,11.41 v 0.313 l 2.81,-0.313 h 28.44 v 81.09 c 1.02,9.262 4.14,13.91 9.37,13.91 z" /><path
         id="path42"
         style="fill:#414042;fill-opacity:1;fill-rule:nonzero;stroke:none"
         d="m 3011.21,760.039 c 8.13,-2.109 12.19,-5.269 12.19,-9.527 v -33.91 c 32.58,28.949 63.36,43.437 92.34,43.437 15.63,0 31.96,-3.668 49.06,-10.937 3.13,-3.364 4.69,-6.52 4.69,-9.532 v -0.468 c -1.37,-7.813 -5.11,-11.723 -11.25,-11.723 -16.79,5.32 -29.76,7.973 -38.9,7.973 h -5.32 c -38.55,0 -66.79,-19.961 -84.68,-59.84 -3.99,-10.742 -5.94,-22.782 -5.94,-36.102 V 530.98 c 0,-5.628 -3.99,-9.14 -11.88,-10.468 h -0.47 c -5.93,0 -9.68,4.218 -11.25,12.648 v 211.41 c 1.14,10.309 4.93,15.469 11.41,15.469 z" /><path
         id="path44"
         style="fill:#414042;fill-opacity:1;fill-rule:nonzero;stroke:none"
         d="m 3330.39,758.012 c 44.88,0 80.39,-22.032 106.56,-66.102 8.01,-17.609 12.03,-36.09 12.03,-55.461 V 530.82 c 0,-5.55 -3.9,-8.98 -11.71,-10.308 h -0.47 c -5.12,0 -8.87,2.886 -11.25,8.75 v -0.473 l 0.93,22.813 v 15.308 c -32.5,-30.93 -63.43,-46.398 -92.81,-46.398 h -7.03 c -40.23,0 -73.75,20.226 -100.62,60.777 -9.69,19.371 -14.54,38.981 -14.54,58.91 0,44.063 21.72,79.063 65.16,105 18.32,8.512 36.25,12.813 53.75,12.813 z m -95.47,-116.883 v -2.649 c 0,-38.75 19.42,-67.968 58.28,-87.66 12.5,-4.609 23.64,-6.871 33.44,-6.871 h 7.03 c 32.58,0 59.42,16.172 80.47,48.59 7.58,15.313 11.41,29.922 11.41,43.91 v 3.75 c 0,37.383 -18.4,65.93 -55.16,85.621 -13.05,5.821 -26.37,8.75 -40,8.75 h -1.09 c -39.38,0 -68.91,-20.429 -88.6,-61.25 -3.86,-12.73 -5.78,-23.441 -5.78,-32.191 z" /><path
         id="path46"
         style="fill:#768bbf;fill-opacity:1;fill-rule:nonzero;stroke:none"
         d="m 884.961,304.488 c 24.449,0 47.07,-7.297 67.809,-21.867 1.019,-2 1.57,-3.562 1.57,-4.691 v -1.41 c 0,-4.68 -3.211,-7.34 -9.539,-7.969 h 0.629 l -21.879,11.25 c -15.742,5 -28.59,7.5 -38.59,7.5 -32.109,0 -59.801,-14.641 -83.121,-43.903 -11.68,-19.609 -17.5,-38.707 -17.5,-57.347 0,-37.5 17.539,-67.18 52.648,-89.0627 15.633,-8.0391 31.172,-12.0274 46.723,-12.0274 h 1.879 c 19.68,0 39.211,6.0196 58.59,18.1291 h 2.191 c 5.309,-1.18 7.969,-3.6017 7.969,-7.3517 v -1.8672 c 0,-6.9922 -13.399,-14.4922 -40.16,-22.5 -8.75,-2.5 -17.809,-3.75 -27.192,-3.75 h -3.277 c -38.981,0 -71.641,18.1172 -97.973,54.3669 -12.418,20.821 -18.59,42.192 -18.59,64.063 0,41.019 18.75,74.461 56.25,100.32 19.883,12.07 40.391,18.117 61.563,18.117 z M 1078.67,233.09 c 21.25,0 40.55,-8.09 57.97,-24.219 16.45,-17.312 24.69,-36.801 24.69,-58.441 0,-31.051 -14.69,-55.43 -44.06,-73.1292 -12.62,-6.4805 -24.85,-9.6797 -36.72,-9.6797 h -5.16 c -22.11,0 -42.73,10.5 -61.87,31.5586 -11.68,16.4413 -17.5,33.5193 -17.5,51.2503 0,26.871 11.87,49.41 35.62,67.66 15.2,10 30.86,15 47.03,15 z m -65.78,-80.789 v -3.121 c 0,-24.918 11.95,-44.18 35.94,-57.8089 8.75,-4.4922 18.05,-6.7227 27.97,-6.7227 h 3.75 c 25.7,0 45.39,13.3204 59.06,39.9996 3.2,8.442 4.84,16.602 4.84,24.532 v 3.121 c 0,20.82 -9.49,38.211 -28.43,52.187 -11.18,7.813 -23.83,11.723 -37.97,11.723 -28.25,0 -48.83,-14.652 -61.72,-43.91 -2.31,-7.301 -3.44,-13.981 -3.44,-20 z" /><path
         id="path48"
         style="fill:#768bbf;fill-opacity:1;fill-rule:nonzero;stroke:none"
         d="m 1211.17,234.02 c 5.51,-1.481 8.28,-3.711 8.28,-6.719 v -23.59 c 22.5,20.199 44.1,30.309 64.85,30.309 22.81,0 43,-9.532 60.62,-28.59 12.89,-15.942 19.38,-32.66 19.38,-50.16 V 74.1797 c 0,-3.2383 -2.78,-5.4297 -8.28,-6.5586 -5.43,1.0078 -8.13,3.668 -8.13,7.9687 v 71.3982 c 0,33.953 -14.84,56.41 -44.53,67.352 -7.19,1.75 -13.56,2.648 -19.06,2.648 h -1.88 c -24.92,0 -44.06,-12.769 -57.5,-38.277 -3.67,-7.93 -5.47,-20.231 -5.47,-36.871 V 74.8008 c 0,-3.8594 -2.73,-6.25 -8.12,-7.1797 h -0.31 c -4.18,0 -6.84,2.9687 -7.97,8.8984 V 223.398 c 0.82,7.071 3.51,10.622 8.12,10.622 z" /><path
         id="path50"
         style="fill:#768bbf;fill-opacity:1;fill-rule:nonzero;stroke:none"
         d="m 1465.86,232.93 c 27.69,0 49.37,-12.309 65,-36.879 l 0.31,-3.75 v -0.621 c 0,-4.18 -2.93,-6.719 -8.75,-7.66 -3.75,0 -8.2,4.3 -13.28,12.968 -12.81,12.5 -27.26,18.75 -43.28,18.75 -21.06,0 -37.77,-10.226 -50.16,-30.617 l -0.78,-4.531 c 0,-8.442 7.54,-13.36 22.66,-14.692 48.12,-11.558 74.26,-18.128 78.44,-19.687 10.62,-6.992 15.93,-15.859 15.93,-26.563 v -0.468 c 0,-15.86 -12.11,-30.6995 -36.25,-44.5316 -10.43,-4.6875 -21.64,-7.0273 -33.59,-7.0273 -24.18,0 -44.77,11.3984 -61.72,34.2189 -1.05,1.871 -1.56,3.43 -1.56,4.68 v 3.75 c 0,3.64 3.28,5.781 9.84,6.41 2.38,0 6.92,-4.84 13.6,-14.532 12.38,-11.3667 26.56,-17.0269 42.5,-17.0269 19.25,0 35.31,9.2187 48.12,27.6489 l 1.56,5 v 1.41 c 0,7.89 -4.96,12.422 -14.84,13.59 -55.74,12.39 -85,19.851 -87.81,22.351 -9.5,7.18 -14.22,15.82 -14.22,25.93 0,14.258 10.86,28.359 32.65,42.347 11.96,6.332 23.83,9.532 35.63,9.532 z" /><path
         id="path52"
         style="fill:#768bbf;fill-opacity:1;fill-rule:nonzero;stroke:none"
         d="m 1579.57,234.648 c 5.63,-1.367 8.44,-3.597 8.44,-6.718 v -68.442 c 0,-30.937 8.9,-51.828 26.72,-62.6482 11.32,-8.5585 23.94,-12.8203 37.81,-12.8203 26.64,0 46.72,13.75 60.16,41.2505 2.81,8.832 4.21,17.66 4.21,26.41 v 74.058 c 1.14,5.942 3.83,8.91 8.13,8.91 5.51,-1.25 8.28,-3.867 8.28,-7.808 V 74.3398 c 0,-3.3593 -2.73,-5.5898 -8.12,-6.7187 -5.55,1.0078 -8.29,3.668 -8.29,7.9687 v 16.3985 h -6.56 c -17.81,-16.25 -36.48,-24.3672 -55.94,-24.3672 h -4.37 c -25.24,0 -47.11,12.418 -65.63,37.3399 -8.55,13.199 -12.81,29.687 -12.81,49.379 v 69.68 c 0.7,7.07 3.36,10.628 7.97,10.628 z" /><path
         id="path54"
         style="fill:#768bbf;fill-opacity:1;fill-rule:nonzero;stroke:none"
         d="m 1780.43,302.93 h 2.03 c 5.2,-0.942 7.81,-2.93 7.81,-5.942 V 84.1797 h 17.82 c 3.32,0 5.54,-2.8086 6.71,-8.4414 v 0.3125 c -0.93,-5.6211 -3.67,-8.4297 -8.12,-8.4297 h -24.84 c -4.3,0 -7,2.9687 -8.13,8.8984 V 293.09 c 0.7,6.558 2.97,9.84 6.72,9.84 z" /><path
         id="path56"
         style="fill:#768bbf;fill-opacity:1;fill-rule:nonzero;stroke:none"
         d="m 1885.16,296.68 h 1.87 c 5,-1.059 7.5,-2.969 7.5,-5.782 V 230.27 H 1925 l 5.62,0.628 c 3.33,0 5.71,-2.968 7.19,-8.91 0,-3.437 -2.34,-6.008 -7.03,-7.648 l -8.59,0.621 h -27.66 v -96.41 c 0,-18.121 6.41,-29.3713 19.22,-33.7502 l 15,-1.25 h 7.19 c 3.12,0 5.19,-2.6524 6.25,-7.961 v 0.1485 c -0.86,-5.4297 -3.4,-8.1172 -7.66,-8.1172 h -13.12 c -18.13,0 -31.64,10 -40.47,30 -1.56,4.7579 -2.35,10.4999 -2.35,17.1799 v 100.16 h -16.87 l -9.38,-0.621 c -4.61,1.64 -6.87,4.25 -6.87,7.808 0.94,5.391 4.69,8.122 11.25,8.122 v 0.16 l 1.87,-0.16 h 20 v 56.718 c 0.71,6.453 2.89,9.692 6.57,9.692 z" /><path
         id="path58"
         style="fill:#768bbf;fill-opacity:1;fill-rule:nonzero;stroke:none"
         d="m 2054.06,234.02 c 31.33,0 56.25,-15.469 74.69,-46.399 5.51,-12.312 8.28,-25.242 8.28,-38.75 V 74.8008 c 0,-3.8594 -2.73,-6.25 -8.12,-7.1797 h -0.47 c -3.44,0 -6.06,2.0703 -7.82,6.25 v -0.3203 l 0.79,15.789 v 10.7812 c -22.82,-21.6796 -44.5,-32.4999 -65,-32.4999 h -5 c -28.13,0 -51.57,14.2187 -70.32,42.6489 -6.87,13.519 -10.31,27.23 -10.31,41.101 0,30.93 15.2,55.469 45.63,73.59 12.89,6.019 25.47,9.059 37.65,9.059 z m -66.87,-81.872 v -1.878 c 0,-27.18 13.59,-47.649 40.78,-61.3989 8.83,-3.25 16.64,-4.8516 23.44,-4.8516 h 5 c 22.81,0 41.56,11.3321 56.25,34.0705 5.31,10.699 7.96,20.969 7.96,30.781 v 2.5 c 0,26.25 -12.89,46.25 -38.59,60 -9.18,4.141 -18.51,6.25 -27.97,6.25 h -0.78 c -27.5,0 -48.2,-14.34 -62.03,-42.973 -2.73,-8.867 -4.06,-16.367 -4.06,-22.5 z" /><path
         id="path60"
         style="fill:#768bbf;fill-opacity:1;fill-rule:nonzero;stroke:none"
         d="m 2190.08,234.02 c 5.51,-1.481 8.28,-3.711 8.28,-6.719 v -23.59 c 22.5,20.199 44.1,30.309 64.84,30.309 22.82,0 43.01,-9.532 60.63,-28.59 12.89,-15.942 19.37,-32.66 19.37,-50.16 V 74.1797 c 0,-3.2383 -2.77,-5.4297 -8.28,-6.5586 -5.43,1.0078 -8.12,3.668 -8.12,7.9687 v 71.3982 c 0,33.953 -14.85,56.41 -44.53,67.352 -7.19,1.75 -13.56,2.648 -19.07,2.648 h -1.87 c -24.92,0 -44.06,-12.769 -57.5,-38.277 -3.67,-7.93 -5.47,-20.231 -5.47,-36.871 V 74.8008 c 0,-3.8594 -2.74,-6.25 -8.13,-7.1797 h -0.31 c -4.18,0 -6.83,2.9687 -7.97,8.8984 V 223.398 c 0.82,7.071 3.52,10.622 8.13,10.622 z" /><path
         id="path62"
         style="fill:#768bbf;fill-opacity:1;fill-rule:nonzero;stroke:none"
         d="m 2462.27,234.488 c 21.44,0 40.82,-7.968 58.12,-23.898 0.63,-1.18 0.94,-2.43 0.94,-3.75 v -0.469 c -0.94,-5.43 -3.56,-8.133 -7.81,-8.133 h -0.63 c -2.19,0 -8.28,3.793 -18.28,11.41 -10.31,5.313 -20.47,7.973 -30.47,7.973 h -3.75 c -26.68,0 -46.8,-13.91 -60.31,-41.723 -3.24,-9.488 -4.85,-17.968 -4.85,-25.468 0,-26.989 13.91,-47.5 41.72,-61.5589 8.44,-3.25 17.35,-4.8516 26.72,-4.8516 15.71,0 30.86,6.1016 45.47,18.2815 l 3.59,0.937 h 1.41 c 3.95,0 6.33,-2.769 7.19,-8.2771 v -0.1601 c 0,-6.7891 -12.62,-15 -37.81,-24.6797 -8.75,-1.6797 -15.24,-2.5 -19.38,-2.5 h -5.16 c -22.3,0 -43.08,10.6172 -62.34,31.8672 -11.87,16.5627 -17.81,33.7497 -17.81,51.5627 0,27.07 12.03,49.89 36.09,68.437 15.31,10 31.1,15 47.35,15 z" /><path
         id="path64"
         style="fill:#768bbf;fill-opacity:1;fill-rule:nonzero;stroke:none"
         d="m 2673.87,232.148 c 5.19,-1.058 7.81,-3.398 7.81,-7.027 v -0.633 c -0.23,-2.187 -19.77,-49.609 -58.59,-142.1872 -18.25,-45.1914 -28.25,-68.9414 -30,-71.25 -1.25,-1.0117 -2.89,-1.75002 -4.85,-2.17971 -5,1.05079 -7.5,2.96871 -7.5,5.77731 v 2.9727 c 0,0.9297 8.95,22.9297 26.88,65.9297 v 2.1875 L 2550.74,224.18 v -0.782 c 1.02,5.313 3.64,7.973 7.81,7.973 4.46,0 8.83,-6.961 13.13,-20.781 25.82,-61.25 39.37,-94.461 40.62,-99.539 h 6.88 c 31.76,77.578 48.28,117.109 49.53,118.597 1.95,1.641 3.67,2.5 5.16,2.5 z" /></g></g></svg>